# xmcd
#
# Track frame offsets:
#	150
#	17842
#	36061
#	56429
#	78374
#	100731
#	115907
#	136791
#
# Disc length: 2166 seconds
#
# Revision: 29
# Processed by: cddbd v1.5.2PL0 Copyright (c) Steve Scherf et al.
# Submitted via: Jack! The Knife 20 Magnifico
#
DISCID=59087408
DTITLE=Running Wild - Branded And Exiled
DYEAR=1985
DGENRE=Metal
TTITLE0=Branded And Exiled
TTITLE1=Gods Of Iron
TTITLE2=Realm Of Shades
TTITLE3=Mordor
TTITLE4=Fight The Oppression
TTITLE5=Evil Spirit
TTITLE6=Marching To Die
TTITLE7=Chains And Leather
EXTD=Running Wild
EXTT0=Rolf Kasparek
EXTT1=Rolf Kasparek
EXTT2=Kasparek, Boriss
EXTT3=Rolf Kasparek
EXTT4=Rolf Kasparek
EXTT5=Stephan Boriss
EXTT6=Rolf Kasparek
EXTT7=Rolf Kasparek
PLAYORDER=
